<svg data-v-0dd9719b="" version="1.0" xmlns="http://www.w3.org/2000/svg" xmlns:xlink="http://www.w3.org/1999/xlink" width="100%" height="100%" viewBox="0 0 340.000000 250.000000" preserveAspectRatio="xMidYMid meet" color-interpolation-filters="sRGB" style="margin: auto;"> <rect data-v-0dd9719b="" x="0" y="0" width="100%" height="100%" fill="#fff" fill-opacity="1" class="background"></rect> <rect data-v-0dd9719b="" x="0" y="0" width="100%" height="100%" fill="url(#watermark)" fill-opacity="1" class="watermarklayer"></rect> <g data-v-0dd9719b="" fill="#333" class="icon-text-wrapper icon-svg-group iconsvg" transform="translate(46.25,97.35761833190918)"><g class="iconsvg-imagesvg" transform="translate(0,0)"><g><rect fill="#333" fill-opacity="0" stroke-width="2" x="0" y="0" width="60" height="55.28476259801527" class="image-rect"></rect> <svg x="0" y="0" width="60" height="55.28476259801527" filtersec="colorsb4404027018" class="image-svg-svg primary" style="overflow: visible;"><svg xmlns="http://www.w3.org/2000/svg" viewBox="-9.670483001617686e-14 -0.0028448104858398438 108.5300064086914 100.0006103515625"><g fill-rule="evenodd"><path d="M78.25 99.64c4.85 1.53 7.8-2.18 8.51-4.84 2.69-10.11-15.4-28-15.4-45.59s18-34 15-43.66c-.76-2.45-3.51-6.88-8.1-5.17a54.19 54.19 0 0 0 0 99.26z" fill="#5b69f2" opacity=".8"></path><path d="M30.28 99.64c-4.85 1.53-7.8-2.18-8.51-4.84-2.69-10.11 15.4-28 15.4-45.59s-18-34-15-43.66c.77-2.45 3.52-6.88 8.11-5.17a54.2 54.2 0 0 1 0 99.26z" fill="#75b5c1" opacity=".8"></path><path d="M13.61 37.71A13.61 13.61 0 1 1 0 51.32a13.61 13.61 0 0 1 13.61-13.61z" fill="#5b69f2"></path><path d="M94.92 37.71a13.61 13.61 0 1 1-13.61 13.61 13.62 13.62 0 0 1 13.61-13.61z" fill="#75b5c1"></path></g></svg></svg> <!----></g></g> <g transform="translate(67,11.872381210327148)"><g data-gra="path-name" fill-rule="" class="tp-name iconsvg-namesvg"><g transform="scale(1)"><g><path d="M17.23-30.31L26.97-29.68 19.22-0.21 8.72 0.38-0.8-29.38 9.23-30.31 13.29-12.96 17.23-30.31ZM50.26-17.1L50.26-17.1Q50.26-15.26 50-13.42L50-13.42Q46.38-13.19 42.8-12.67 39.23-12.15 35.65-11.64L35.65-11.64Q36.2-10.12 37.37-9.21 38.55-8.3 40.18-8.3L40.18-8.3Q41.03-8.3 42.03-8.62 43.04-8.93 44.03-9.41 45.03-9.89 45.94-10.44 46.85-10.99 47.5-11.43L47.5-11.43 46.49-1.82Q45.66-1.19 44.7-0.74 43.74-0.3 42.7-0.02 41.66 0.25 40.6 0.38 39.54 0.51 38.53 0.51L38.53 0.51Q36.43 0.51 34.7-0.06 32.96-0.64 31.55-1.66 30.14-2.69 29.09-4.09 28.03-5.48 27.33-7.13 26.63-8.79 26.27-10.63 25.91-12.47 25.91-14.35L25.91-14.35Q25.91-16.32 26.27-18.29 26.63-20.26 27.36-22.08 28.09-23.9 29.2-25.46 30.31-27.01 31.8-28.18 33.28-29.34 35.15-30 37.02-30.65 39.29-30.65L39.29-30.65Q41.17-30.65 42.73-30.13 44.29-29.62 45.5-28.69 46.72-27.77 47.62-26.5 48.52-25.23 49.1-23.72 49.68-22.21 49.97-20.52 50.26-18.84 50.26-17.1ZM41.79-17.74L41.79-18.21Q41.79-18.8 41.66-19.42 41.53-20.05 41.25-20.56 40.96-21.06 40.5-21.39 40.03-21.72 39.33-21.72L39.33-21.72Q38.49-21.72 37.84-21.26 37.19-20.81 36.73-20.12 36.26-19.43 35.97-18.63 35.67-17.82 35.52-17.15L35.52-17.15 41.79-17.74ZM77.9-10.71L77.9-10.71Q77.9-8.32 77.85-5.98 77.8-3.64 77.69-1.27L77.69-1.27 65.5-1.48Q66.13-5.23 66.6-8.97 67.06-12.7 67.06-16.51L67.06-16.51Q67.06-16.79 67.04-17.4 67.02-18.01 66.96-18.79 66.89-19.56 66.78-20.38 66.66-21.19 66.46-21.87 66.26-22.54 65.97-22.98 65.69-23.41 65.29-23.41L65.29-23.41Q64.57-23.41 64.07-22.99 63.57-22.57 63.24-21.9 62.91-21.23 62.72-20.41 62.53-19.58 62.44-18.76 62.34-17.93 62.31-17.2 62.28-16.47 62.28-16L62.28-16Q62.17-12.26 62.11-8.56 62.05-4.87 61.94-1.1L61.94-1.1 51.14-0.64Q51.57-8.11 51.96-15.5 52.35-22.88 52.58-30.36L52.58-30.36 62.58-30.86 62.49-27.48Q63.08-28.2 63.77-28.83 64.46-29.47 65.24-29.92 66.03-30.38 66.9-30.64 67.78-30.91 68.76-30.91L68.76-30.91Q70.56-30.91 71.91-30.31 73.27-29.72 74.24-28.71 75.21-27.69 75.87-26.3 76.53-24.92 76.93-23.35 77.33-21.78 77.54-20.08 77.75-18.37 77.83-16.72 77.9-15.07 77.9-13.53 77.9-11.98 77.9-10.71ZM79.24-29.81L102.31-29.85 102.1-20.87 95.79-20.62 95.03-0.97 86.09-0.51 85.29-20.15 78.98-19.81 79.24-29.81ZM128.75-29.81L128.75-29.81Q127.8-22.35 127.12-14.98 126.44-7.6 125.83-0.13L125.83-0.13 117.15 0.51 117.53-2.75Q117.11-2.27 116.55-1.91 115.98-1.55 115.35-1.32 114.71-1.1 114.04-1.01 113.36-0.91 112.75-0.93L112.75-0.93Q111.31-0.95 110.04-1.49 108.77-2.03 107.71-2.93 106.65-3.83 105.8-5.03 104.96-6.22 104.37-7.55 103.79-8.87 103.48-10.25 103.18-11.62 103.18-12.91L103.18-12.91Q103.18-14.82 103.25-16.86 103.33-18.9 103.52-20.96 103.71-23.01 104.01-25.02 104.32-27.03 104.79-28.87L104.79-28.87Q107.37-28.75 109.97-28.64 112.58-28.54 115.16-28.58L115.16-28.58Q114.67-26.74 114.2-24.88 113.72-23.03 113.34-21.16 112.96-19.28 112.72-17.4 112.49-15.52 112.49-13.59L112.49-13.59Q112.49-13.15 112.53-12.32 112.58-11.49 112.76-10.69 112.94-9.89 113.31-9.28 113.68-8.68 114.35-8.68L114.35-8.68Q115.16-8.68 115.79-9.37 116.43-10.06 116.92-11.22 117.4-12.38 117.75-13.91 118.1-15.43 118.35-17.09 118.59-18.76 118.74-20.45 118.89-22.14 118.96-23.64 119.03-25.13 119.07-26.31 119.1-27.5 119.1-28.15L119.1-28.15Q119.1-28.58 119.08-28.98 119.05-29.38 119.01-29.81L119.01-29.81Q120.39-29.76 121.74-29.74 123.1-29.72 124.47-29.72L124.47-29.72Q125.53-29.72 126.6-29.73 127.67-29.74 128.75-29.81ZM154.83-20.41L154.83-20.41Q154.83-18.76 154.54-17.41 154.26-16.07 153.64-14.95 153.03-13.82 152.06-12.87 151.08-11.92 149.71-11.05L149.71-11.05 154.75-2.07 145.22-0.21 141.96-9.23 139.33-9.15 138.95-0.34 129.85-0.34Q129.96-5.17 130.05-9.95 130.15-14.73 130.27-19.56L130.27-19.56Q130.32-21.99 130.36-24.39 130.4-26.78 130.53-29.21L130.53-29.21Q132.01-29.76 133.45-30.12 134.89-30.48 136.34-30.68 137.79-30.89 139.28-30.96 140.77-31.03 142.34-31.03L142.34-31.03Q144.75-31.03 147.01-30.37 149.26-29.7 151-28.37 152.73-27.03 153.78-25.04 154.83-23.05 154.83-20.41ZM145.35-19.73L145.35-19.73Q145.35-20.62 145.1-21.36 144.86-22.1 144.38-22.64 143.91-23.18 143.2-23.49 142.49-23.79 141.54-23.79L141.54-23.79Q141.11-23.79 140.71-23.74 140.31-23.69 139.93-23.58L139.93-23.58 139.59-15.71 140.1-15.71Q141.01-15.71 141.95-15.94 142.89-16.17 143.64-16.66 144.39-17.15 144.87-17.91 145.35-18.67 145.35-19.73ZM179.7-17.1L179.7-17.1Q179.7-15.26 179.45-13.42L179.45-13.42Q175.83-13.19 172.25-12.67 168.67-12.15 165.1-11.64L165.1-11.64Q165.65-10.12 166.82-9.21 168-8.3 169.63-8.3L169.63-8.3Q170.47-8.3 171.48-8.62 172.49-8.93 173.48-9.41 174.47-9.89 175.39-10.44 176.3-10.99 176.95-11.43L176.95-11.43 175.94-1.82Q175.11-1.19 174.15-0.74 173.18-0.3 172.15-0.02 171.11 0.25 170.05 0.38 168.99 0.51 167.98 0.51L167.98 0.51Q165.88 0.51 164.14-0.06 162.41-0.64 161-1.66 159.59-2.69 158.53-4.09 157.48-5.48 156.78-7.13 156.08-8.79 155.72-10.63 155.36-12.47 155.36-14.35L155.36-14.35Q155.36-16.32 155.72-18.29 156.08-20.26 156.81-22.08 157.54-23.9 158.65-25.46 159.76-27.01 161.24-28.18 162.73-29.34 164.6-30 166.47-30.65 168.74-30.65L168.74-30.65Q170.62-30.65 172.18-30.13 173.73-29.62 174.95-28.69 176.17-27.77 177.07-26.5 177.97-25.23 178.55-23.72 179.13-22.21 179.42-20.52 179.7-18.84 179.7-17.1ZM171.24-17.74L171.24-18.21Q171.24-18.8 171.11-19.42 170.98-20.05 170.7-20.56 170.41-21.06 169.94-21.39 169.48-21.72 168.78-21.72L168.78-21.72Q167.93-21.72 167.29-21.26 166.64-20.81 166.18-20.12 165.71-19.43 165.41-18.63 165.12-17.82 164.97-17.15L164.97-17.15 171.24-17.74Z" transform="translate(0.800000011920929, 31.030000686645508)"></path></g> <!----> <!----> <!----> <!----> <!----> <!----> <!----></g></g> <!----></g></g><defs v-gra="od"></defs></svg>